<svg id="Capa_1" data-name="Capa 1" xmlns="http://www.w3.org/2000/svg" viewBox="0 0 170.40941 30">
  <g>
    <g>
      <polygon points="9.146 0.575 1.121 0.575 1.121 29.643 19.219 29.643 19.219 23.155 9.146 23.155 9.146 0.575" style="fill: #2c0049"/>
      <path d="M55.60237,22.96493a2.90268,2.90268,0,0,1-.91826-2.3262v-7h5.20332V7.958H54.68411V.57546L46.9404,3.06079V7.958H44.051v5.68076H46.9404v7a9.77693,9.77693,0,0,0,2.28639,6.88058q2.28332,2.47617,6.68162,2.47617a10.80469,10.80469,0,0,0,4.00963-.64887V23.49747a10.974,10.974,0,0,1-2.03236.25711A3.36666,3.36666,0,0,1,55.60237,22.96493Z" style="fill: #2c0049"/>
      <path d="M109.25139,14.28153a6.8072,6.8072,0,0,0,3.4158-2.54043A6.932,6.932,0,0,0,113.87312,7.704a6.68479,6.68479,0,0,0-2.75466-5.62264A11.97951,11.97951,0,0,0,103.70836,0h-14.407V29.63125h14.79573a14.62723,14.62723,0,0,0,5.641-.9978,8.28869,8.28869,0,0,0,3.67291-2.83121,7.27856,7.27856,0,0,0,1.28859-4.28506,7.09954,7.09954,0,0,0-5.44816-7.23565ZM96.92265,5.92872h5.45429a5.57909,5.57909,0,0,1,3.14339.707,2.53369,2.53369,0,0,1,1.01924,2.20682,2.37266,2.37266,0,0,1-.99781,2.12418,5.86706,5.86706,0,0,1-3.16485.66417H96.92265Zm9.47,17.10965v-.01532a5.6143,5.6143,0,0,1-3.226.71013H96.92265V17.529h6.2409a5.62884,5.62884,0,0,1,3.24744.707,2.90815,2.90815,0,0,1,.96109,2.43023A2.73774,2.73774,0,0,1,106.39262,23.03837Z" style="fill: #2c0049"/>
      <rect x="117.6379" y="7.958" width="7.72842" height="21.6855" style="fill: #2c0049"/>
      <path d="M83.91439,18.87575A10.20576,10.20576,0,0,0,78.956,16.49753l-3.63-.81111a5.98651,5.98651,0,0,1-1.61915-.57543.857.857,0,0,1-.42851-.74683,1.28252,1.28252,0,0,1,.7254-1.17534,4.15956,4.15956,0,0,1,2.00785-.404,10.67975,10.67975,0,0,1,3.36684.59683,15.26976,15.26976,0,0,1,3.20157,1.53041V8.7385a18.52921,18.52921,0,0,0-1.87932-.69173,15.84827,15.84827,0,0,0-4.59113-.68255A13.08805,13.08805,0,0,0,71.05,8.28245a8.169,8.169,0,0,0-3.43417,2.54043,5.9411,5.9411,0,0,0-1.23963,3.71576,5.50586,5.50586,0,0,0,1.47223,4.07389,9.3189,9.3189,0,0,0,4.80237,2.1425l3.49845.80806a6.18583,6.18583,0,0,1,2.02928.66417,1.1079,1.1079,0,0,1,.53255.958,1.1784,1.1784,0,0,1-.72537,1.0682,4.42851,4.42851,0,0,1-2.04766.38565,15.12312,15.12312,0,0,1-4.35548-.66417,14.11533,14.11533,0,0,1-3.81064-1.7569v6.32966a20.17416,20.17416,0,0,0,8.111,1.44775A11.79226,11.79226,0,0,0,82.90434,28.159a5.87661,5.87661,0,0,0,2.54042-5.038A5.79546,5.79546,0,0,0,83.91439,18.87575Z" style="fill: #2c0049"/>
      <path d="M37.63569,8.72931a10.3301,10.3301,0,0,0-5.37777-1.36509A10.804,10.804,0,0,0,26.64755,8.815a10.168,10.168,0,0,0-3.84434,4.04019,12.20049,12.20049,0,0,0-1.38651,5.86748,11.89492,11.89492,0,0,0,1.4508,5.99911,9.65945,9.65945,0,0,0,4.18408,3.89632,14.19513,14.19513,0,0,0,6.42759,1.36817,15.91335,15.91335,0,0,0,3.91775-.505V23.66582l-.27238.11019a10.34942,10.34942,0,0,1-3.25361.53257,5.25554,5.25554,0,0,1-3.627-1.111,5.29133,5.29133,0,0,1-1.44161-3.627H42.4166V18.54516a13.32349,13.32349,0,0,0-1.2243-5.91031A8.99864,8.99864,0,0,0,37.63569,8.72931ZM28.885,15.98639q.72537-3.33321,3.5872-3.33011,2.90161,0,3.33011,3.33011Z" style="fill: #2c0049"/>
      <path d="M142.83406,23.75458a3.3669,3.3669,0,0,1-2.29252-.78965,2.90274,2.90274,0,0,1-.9182-2.3262v-7h5.20328V7.958h-5.20328V.58462L131.898,3.06079V7.958h-2.89244v5.68076H131.898v7.00916a9.74217,9.74217,0,0,0,2.28026,6.87139q2.28327,2.47617,6.68165,2.47617a10.80441,10.80441,0,0,0,4.01265-.64887V23.49747A10.97492,10.97492,0,0,1,142.83406,23.75458Z" style="fill: #2c0049"/>
      <path d="M66.67814,2.28026a2.49393,2.49393,0,1,0-3.3004,3.55306A3.25783,3.25783,0,0,1,61.33212,8.1294s4.77783.86621,5.77872-2.91079A3.4792,3.4792,0,0,0,66.67814,2.28026Z" style="fill: #2c0049"/>
    </g>
    <path d="M154.48076,15.06354l1.10931,1.35127a6.3256,6.3256,0,0,0,4.90282,2.6642c3.35218,0,6.37261-3.099,6.67654-3.63877-.02184.03884.01892-.022.08987-.12351q-6.07585-3.828-12.13586-7.67967a1.64058,1.64058,0,0,0-2.02015-.13162,1.56755,1.56755,0,0,0-.37952,1.91912C153.31158,11.30366,153.92333,13.17591,154.48076,15.06354Z" style="fill: #2c0049"/>
    <path d="M169.28861,18.77779A2.83424,2.83424,0,0,1,167.847,21.2264q-6.21023,3.93-12.39914,7.88452c-.19893.12854-.39789.251-.59685.37342a1.45385,1.45385,0,0,1-1.75382-.01838,1.43852,1.43852,0,0,1-.5142-1.6773c.30607-1.10186.66114-2.19454,1.00086-3.2903.4836-1.5671,1.04679-3.11586,1.42021-4.70747a5.33855,5.33855,0,0,0,0-2.51594c5.892,7.1775,13.12148-1.01616,12.85518-1.19369A2.9075,2.9075,0,0,1,169.28861,18.77779Z" style="fill: #2c0049"/>
  </g>
</svg>
